<svg xmlns="http://www.w3.org/2000/svg" xmlns:xlink="http://www.w3.org/1999/xlink" contentStyleType="text/css" data-diagram-type="ACTIVITY" height="791px" preserveAspectRatio="none" style="width:775px;height:791px;background:#FFFFFF;" version="1.1" viewBox="0 0 775 791" width="775px" zoomAndPan="magnify"><?plantuml 1.2026.3?><defs/><g><g class="title" data-source-line="1"><text fill="#000000" font-family="sans-serif" font-size="14" font-weight="700" lengthAdjust="spacing" textLength="320.5303" x="226.6577" y="33.5352">Flujo general de atenci&#243;n del cliente en ATM</text></g><ellipse cx="346.448" cy="62.4883" fill="#222222" rx="10" ry="10" style="stroke:#222222;stroke-width:1;"/><rect fill="#F1F1F1" height="34.1328" rx="12.5" ry="12.5" style="stroke:#181818;stroke-width:0.5;" width="164.6152" x="264.1404" y="92.4883"/><text fill="#000000" font-family="sans-serif" font-size="12" lengthAdjust="spacing" textLength="144.6152" x="274.1404" y="114.0898">Cliente llega al &#225;rea ATM</text><rect fill="#F1F1F1" height="34.1328" rx="12.5" ry="12.5" style="stroke:#181818;stroke-width:0.5;" width="128.9023" x="281.9968" y="146.6211"/><text fill="#000000" font-family="sans-serif" font-size="12" lengthAdjust="spacing" textLength="108.9023" x="291.9968" y="168.2227">Registrar arrival_ts</text><polygon fill="#F1F1F1" points="304.4084,200.7539,388.4875,200.7539,400.4875,212.7539,388.4875,224.7539,304.4084,224.7539,292.4084,212.7539,304.4084,200.7539" style="stroke:#181818;stroke-width:0.5;"/><text fill="#000000" font-family="sans-serif" font-size="11" lengthAdjust="spacing" textLength="84.0791" x="304.4084" y="216.9111">&#191;Hay ATM libre?</text><text fill="#000000" font-family="sans-serif" font-size="11" lengthAdjust="spacing" textLength="9.104" x="283.3044" y="210.4336">S&#237;</text><text fill="#000000" font-family="sans-serif" font-size="11" lengthAdjust="spacing" textLength="14.8833" x="400.4875" y="210.4336">No</text><rect fill="#F1F1F1" height="34.1328" rx="12.5" ry="12.5" style="stroke:#181818;stroke-width:0.5;" width="94.332" x="94.1641" y="234.7539"/><text fill="#000000" font-family="sans-serif" font-size="12" lengthAdjust="spacing" textLength="74.332" x="104.1641" y="256.3555">Asignar ATM</text><rect fill="#F1F1F1" height="34.1328" rx="12.5" ry="12.5" style="stroke:#181818;stroke-width:0.5;" width="165.5352" x="58.5625" y="288.8867"/><text fill="#000000" font-family="sans-serif" font-size="12" lengthAdjust="spacing" textLength="145.5352" x="68.5625" y="310.4883">Registrar service_start_ts</text><rect fill="#F1F1F1" height="34.1328" rx="12.5" ry="12.5" style="stroke:#181818;stroke-width:0.5;" width="164.3867" x="59.1367" y="343.0195"/><text fill="#000000" font-family="sans-serif" font-size="12" lengthAdjust="spacing" textLength="144.3867" x="69.1367" y="364.6211">Cliente realiza operaci&#243;n</text><rect fill="#F1F1F1" height="34.1328" rx="12.5" ry="12.5" style="stroke:#181818;stroke-width:0.5;" width="250.6602" x="16" y="460.6299"/><text fill="#000000" font-family="sans-serif" font-size="12" lengthAdjust="spacing" textLength="230.6602" x="26" y="482.2314">Interrupci&#243;n / reintento / desistimiento</text><polygon fill="#F1F1F1" points="105.6042,412.1523,177.0559,412.1523,189.0559,424.1523,177.0559,436.1523,105.6042,436.1523,93.6042,424.1523,105.6042,412.1523" style="stroke:#181818;stroke-width:0.5;"/><text fill="#000000" font-family="sans-serif" font-size="11" lengthAdjust="spacing" textLength="9.104" x="145.3301" y="446.7871">S&#237;</text><text fill="#000000" font-family="sans-serif" font-size="11" lengthAdjust="spacing" textLength="71.4517" x="105.6042" y="428.3096">&#191;Ocurre falla?</text><polygon fill="#F1F1F1" points="141.3301,518.7178,153.3301,530.7178,141.3301,542.7178,129.3301,530.7178,141.3301,518.7178" style="stroke:#181818;stroke-width:0.5;"/><rect fill="#F1F1F1" height="34.1328" rx="12.5" ry="12.5" style="stroke:#181818;stroke-width:0.5;" width="160.5898" x="61.0352" y="568.8955"/><text fill="#000000" font-family="sans-serif" font-size="12" lengthAdjust="spacing" textLength="140.5898" x="71.0352" y="590.4971">Registrar service_end_ts</text><rect fill="#F1F1F1" height="34.1328" rx="12.5" ry="12.5" style="stroke:#181818;stroke-width:0.5;" width="149.5391" x="66.5605" y="629.2061"/><text fill="#000000" font-family="sans-serif" font-size="12" lengthAdjust="spacing" textLength="129.5391" x="76.5605" y="650.8076">Registrar departure_ts</text><ellipse cx="141.3301" cy="700.5166" fill="none" rx="11" ry="11" style="stroke:#222222;stroke-width:1;"/><ellipse cx="141.3301" cy="700.5166" fill="#222222" rx="6" ry="6" style="stroke:#222222;stroke-width:1;"/><rect fill="#F1F1F1" height="34.1328" rx="12.5" ry="12.5" style="stroke:#181818;stroke-width:0.5;" width="100.5605" x="501.2856" y="234.7539"/><text fill="#000000" font-family="sans-serif" font-size="12" lengthAdjust="spacing" textLength="80.5605" x="511.2856" y="256.3555">Ingresa a cola</text><rect fill="#F1F1F1" height="34.1328" rx="12.5" ry="12.5" style="stroke:#181818;stroke-width:0.5;" width="224.5156" x="439.3081" y="288.8867"/><text fill="#000000" font-family="sans-serif" font-size="12" lengthAdjust="spacing" textLength="204.5156" x="449.3081" y="310.4883">Registrar queue_position_at_arrival</text><polygon fill="#F1F1F1" points="500.3606,343.0195,602.7712,343.0195,614.7712,355.0195,602.7712,367.0195,500.3606,367.0195,488.3606,355.0195,500.3606,343.0195" style="stroke:#181818;stroke-width:0.5;"/><text fill="#000000" font-family="sans-serif" font-size="11" lengthAdjust="spacing" textLength="102.4106" x="500.3606" y="359.1768">&#191;Cliente abandona?</text><text fill="#000000" font-family="sans-serif" font-size="11" lengthAdjust="spacing" textLength="9.104" x="479.2566" y="352.6992">S&#237;</text><text fill="#000000" font-family="sans-serif" font-size="11" lengthAdjust="spacing" textLength="14.8833" x="614.7712" y="352.6992">No</text><rect fill="#F1F1F1" height="34.1328" rx="12.5" ry="12.5" style="stroke:#181818;stroke-width:0.5;" width="143.3047" x="365.6172" y="377.0195"/><text fill="#000000" font-family="sans-serif" font-size="12" lengthAdjust="spacing" textLength="123.3047" x="375.6172" y="398.6211">Registrar abandon_ts</text><rect fill="#F1F1F1" height="34.1328" rx="12.5" ry="12.5" style="stroke:#181818;stroke-width:0.5;" width="237.2188" x="318.6602" y="446.1523"/><text fill="#000000" font-family="sans-serif" font-size="12" lengthAdjust="spacing" textLength="217.2188" x="328.6602" y="467.7539">Registrar abandon_reason presumida</text><rect fill="#F1F1F1" height="34.1328" rx="12.5" ry="12.5" style="stroke:#181818;stroke-width:0.5;" width="177.8281" x="348.3555" y="514.7627"/><text fill="#000000" font-family="sans-serif" font-size="12" lengthAdjust="spacing" textLength="157.8281" x="358.3555" y="536.3643">departure_ts = abandon_ts</text><ellipse cx="437.2695" cy="586.0732" fill="none" rx="11" ry="11" style="stroke:#222222;stroke-width:1;"/><ellipse cx="437.2695" cy="586.0732" fill="#222222" rx="6" ry="6" style="stroke:#222222;stroke-width:1;"/><rect fill="#F1F1F1" height="34.1328" rx="12.5" ry="12.5" style="stroke:#181818;stroke-width:0.5;" width="179.9668" x="575.8789" y="377.0195"/><text fill="#000000" font-family="sans-serif" font-size="12" lengthAdjust="spacing" textLength="159.9668" x="585.8789" y="398.6211">Espera hasta disponibilidad</text><rect fill="#F1F1F1" height="34.1328" rx="12.5" ry="12.5" style="stroke:#181818;stroke-width:0.5;" width="94.332" x="618.6963" y="446.1523"/><text fill="#000000" font-family="sans-serif" font-size="12" lengthAdjust="spacing" textLength="74.332" x="628.6963" y="467.7539">Asignar ATM</text><rect fill="#F1F1F1" height="34.1328" rx="12.5" ry="12.5" style="stroke:#181818;stroke-width:0.5;" width="165.5352" x="583.0947" y="514.7627"/><text fill="#000000" font-family="sans-serif" font-size="12" lengthAdjust="spacing" textLength="145.5352" x="593.0947" y="536.3643">Registrar service_start_ts</text><rect fill="#F1F1F1" height="34.1328" rx="12.5" ry="12.5" style="stroke:#181818;stroke-width:0.5;" width="164.3867" x="583.6689" y="575.0732"/><text fill="#000000" font-family="sans-serif" font-size="12" lengthAdjust="spacing" textLength="144.3867" x="593.6689" y="596.6748">Cliente realiza operaci&#243;n</text><rect fill="#F1F1F1" height="34.1328" rx="12.5" ry="12.5" style="stroke:#181818;stroke-width:0.5;" width="160.5898" x="585.5674" y="635.3838"/><text fill="#000000" font-family="sans-serif" font-size="12" lengthAdjust="spacing" textLength="140.5898" x="595.5674" y="656.9854">Registrar service_end_ts</text><rect fill="#F1F1F1" height="34.1328" rx="12.5" ry="12.5" style="stroke:#181818;stroke-width:0.5;" width="149.5391" x="591.0928" y="695.6943"/><text fill="#000000" font-family="sans-serif" font-size="12" lengthAdjust="spacing" textLength="129.5391" x="601.0928" y="717.2959">Registrar departure_ts</text><ellipse cx="665.8623" cy="760.8271" fill="none" rx="11" ry="11" style="stroke:#222222;stroke-width:1;"/><ellipse cx="665.8623" cy="760.8271" fill="#222222" rx="6" ry="6" style="stroke:#222222;stroke-width:1;"/><line style="stroke:#181818;stroke-width:1;" x1="346.448" x2="346.448" y1="72.4883" y2="92.4883"/><polygon fill="#181818" points="342.448,82.4883,346.448,92.4883,350.448,82.4883,346.448,86.4883" style="stroke:#181818;stroke-width:1;"/><line style="stroke:#181818;stroke-width:1;" x1="346.448" x2="346.448" y1="126.6211" y2="146.6211"/><polygon fill="#181818" points="342.448,136.6211,346.448,146.6211,350.448,136.6211,346.448,140.6211" style="stroke:#181818;stroke-width:1;"/><line style="stroke:#181818;stroke-width:1;" x1="141.3301" x2="141.3301" y1="268.8867" y2="288.8867"/><polygon fill="#181818" points="137.3301,278.8867,141.3301,288.8867,145.3301,278.8867,141.3301,282.8867" style="stroke:#181818;stroke-width:1;"/><line style="stroke:#181818;stroke-width:1;" x1="141.3301" x2="141.3301" y1="323.0195" y2="343.0195"/><polygon fill="#181818" points="137.3301,333.0195,141.3301,343.0195,145.3301,333.0195,141.3301,337.0195" style="stroke:#181818;stroke-width:1;"/><line style="stroke:#181818;stroke-width:1;" x1="141.3301" x2="141.3301" y1="436.1523" y2="460.6299"/><polygon fill="#181818" points="137.3301,450.6299,141.3301,460.6299,145.3301,450.6299,141.3301,454.6299" style="stroke:#181818;stroke-width:1;"/><line style="stroke:#181818;stroke-width:1;" x1="189.0559" x2="276.6602" y1="424.1523" y2="424.1523"/><polygon fill="#181818" points="272.6602,467.6963,276.6602,477.6963,280.6602,467.6963,276.6602,471.6963" style="stroke:#181818;stroke-width:1;"/><line style="stroke:#181818;stroke-width:1;" x1="276.6602" x2="276.6602" y1="424.1523" y2="530.7178"/><line style="stroke:#181818;stroke-width:1;" x1="276.6602" x2="153.3301" y1="530.7178" y2="530.7178"/><polygon fill="#181818" points="163.3301,526.7178,153.3301,530.7178,163.3301,534.7178,159.3301,530.7178" style="stroke:#181818;stroke-width:1;"/><line style="stroke:#181818;stroke-width:1;" x1="141.3301" x2="141.3301" y1="494.7627" y2="518.7178"/><polygon fill="#181818" points="137.3301,508.7178,141.3301,518.7178,145.3301,508.7178,141.3301,512.7178" style="stroke:#181818;stroke-width:1;"/><line style="stroke:#181818;stroke-width:1;" x1="141.3301" x2="141.3301" y1="377.1523" y2="412.1523"/><polygon fill="#181818" points="137.3301,402.1523,141.3301,412.1523,145.3301,402.1523,141.3301,406.1523" style="stroke:#181818;stroke-width:1;"/><line style="stroke:#181818;stroke-width:1;" x1="141.3301" x2="141.3301" y1="542.7178" y2="568.8955"/><polygon fill="#181818" points="137.3301,558.8955,141.3301,568.8955,145.3301,558.8955,141.3301,562.8955" style="stroke:#181818;stroke-width:1;"/><line style="stroke:#181818;stroke-width:1;" x1="141.3301" x2="141.3301" y1="603.0283" y2="629.2061"/><polygon fill="#181818" points="137.3301,619.2061,141.3301,629.2061,145.3301,619.2061,141.3301,623.2061" style="stroke:#181818;stroke-width:1;"/><line style="stroke:#181818;stroke-width:1;" x1="141.3301" x2="141.3301" y1="663.3389" y2="689.5166"/><polygon fill="#181818" points="137.3301,679.5166,141.3301,689.5166,145.3301,679.5166,141.3301,683.5166" style="stroke:#181818;stroke-width:1;"/><line style="stroke:#181818;stroke-width:1;" x1="551.5659" x2="551.5659" y1="268.8867" y2="288.8867"/><polygon fill="#181818" points="547.5659,278.8867,551.5659,288.8867,555.5659,278.8867,551.5659,282.8867" style="stroke:#181818;stroke-width:1;"/><line style="stroke:#181818;stroke-width:1;" x1="437.2695" x2="437.2695" y1="411.1523" y2="446.1523"/><polygon fill="#181818" points="433.2695,436.1523,437.2695,446.1523,441.2695,436.1523,437.2695,440.1523" style="stroke:#181818;stroke-width:1;"/><line style="stroke:#181818;stroke-width:1;" x1="437.2695" x2="437.2695" y1="480.2852" y2="514.7627"/><polygon fill="#181818" points="433.2695,504.7627,437.2695,514.7627,441.2695,504.7627,437.2695,508.7627" style="stroke:#181818;stroke-width:1;"/><line style="stroke:#181818;stroke-width:1;" x1="437.2695" x2="437.2695" y1="548.8955" y2="575.0732"/><polygon fill="#181818" points="433.2695,565.0732,437.2695,575.0732,441.2695,565.0732,437.2695,569.0732" style="stroke:#181818;stroke-width:1;"/><line style="stroke:#181818;stroke-width:1;" x1="665.8623" x2="665.8623" y1="411.1523" y2="446.1523"/><polygon fill="#181818" points="661.8623,436.1523,665.8623,446.1523,669.8623,436.1523,665.8623,440.1523" style="stroke:#181818;stroke-width:1;"/><line style="stroke:#181818;stroke-width:1;" x1="665.8623" x2="665.8623" y1="480.2852" y2="514.7627"/><polygon fill="#181818" points="661.8623,504.7627,665.8623,514.7627,669.8623,504.7627,665.8623,508.7627" style="stroke:#181818;stroke-width:1;"/><line style="stroke:#181818;stroke-width:1;" x1="665.8623" x2="665.8623" y1="548.8955" y2="575.0732"/><polygon fill="#181818" points="661.8623,565.0732,665.8623,575.0732,669.8623,565.0732,665.8623,569.0732" style="stroke:#181818;stroke-width:1;"/><line style="stroke:#181818;stroke-width:1;" x1="665.8623" x2="665.8623" y1="609.2061" y2="635.3838"/><polygon fill="#181818" points="661.8623,625.3838,665.8623,635.3838,669.8623,625.3838,665.8623,629.3838" style="stroke:#181818;stroke-width:1;"/><line style="stroke:#181818;stroke-width:1;" x1="665.8623" x2="665.8623" y1="669.5166" y2="695.6943"/><polygon fill="#181818" points="661.8623,685.6943,665.8623,695.6943,669.8623,685.6943,665.8623,689.6943" style="stroke:#181818;stroke-width:1;"/><line style="stroke:#181818;stroke-width:1;" x1="665.8623" x2="665.8623" y1="729.8271" y2="749.8271"/><polygon fill="#181818" points="661.8623,739.8271,665.8623,749.8271,669.8623,739.8271,665.8623,743.8271" style="stroke:#181818;stroke-width:1;"/><line style="stroke:#181818;stroke-width:1;" x1="488.3606" x2="437.2695" y1="355.0195" y2="355.0195"/><line style="stroke:#181818;stroke-width:1;" x1="437.2695" x2="437.2695" y1="355.0195" y2="377.0195"/><polygon fill="#181818" points="433.2695,367.0195,437.2695,377.0195,441.2695,367.0195,437.2695,371.0195" style="stroke:#181818;stroke-width:1;"/><line style="stroke:#181818;stroke-width:1;" x1="614.7712" x2="665.8623" y1="355.0195" y2="355.0195"/><line style="stroke:#181818;stroke-width:1;" x1="665.8623" x2="665.8623" y1="355.0195" y2="377.0195"/><polygon fill="#181818" points="661.8623,367.0195,665.8623,377.0195,669.8623,367.0195,665.8623,371.0195" style="stroke:#181818;stroke-width:1;"/><line style="stroke:#181818;stroke-width:1;" x1="551.5659" x2="551.5659" y1="323.0195" y2="343.0195"/><polygon fill="#181818" points="547.5659,333.0195,551.5659,343.0195,555.5659,333.0195,551.5659,337.0195" style="stroke:#181818;stroke-width:1;"/><line style="stroke:#181818;stroke-width:1;" x1="292.4084" x2="141.3301" y1="212.7539" y2="212.7539"/><line style="stroke:#181818;stroke-width:1;" x1="141.3301" x2="141.3301" y1="212.7539" y2="234.7539"/><polygon fill="#181818" points="137.3301,224.7539,141.3301,234.7539,145.3301,224.7539,141.3301,228.7539" style="stroke:#181818;stroke-width:1;"/><line style="stroke:#181818;stroke-width:1;" x1="400.4875" x2="551.5659" y1="212.7539" y2="212.7539"/><line style="stroke:#181818;stroke-width:1;" x1="551.5659" x2="551.5659" y1="212.7539" y2="234.7539"/><polygon fill="#181818" points="547.5659,224.7539,551.5659,234.7539,555.5659,224.7539,551.5659,228.7539" style="stroke:#181818;stroke-width:1;"/><line style="stroke:#181818;stroke-width:1;" x1="346.448" x2="346.448" y1="180.7539" y2="200.7539"/><polygon fill="#181818" points="342.448,190.7539,346.448,200.7539,350.448,190.7539,346.448,194.7539" style="stroke:#181818;stroke-width:1;"/><?plantuml-src XL7BJWCn3BpdAtniJzoB4AeGY1u02RYlt8sxDNAJnSbMWh_X0pZn0KZqn_0-gbQbefSeoTZZ6K_cB0Gtqhn4g2YGee0dm4oXvCrNi8T0AKmX4r20wVETSocZPZUv6hv5g4Amnis74hObvsxoI1MdhAY0ghn6AN8wTuuNCFhvliMtjWo4vqgNOyXBenuzRJx73c0oJLm5Q-o8xBsZIgHhBgde17I41czbs6pXTuHOcujEV0lt0n_AHfLWWI9uECyePjQlsjIzvJEZOli9EThTKxBfl6g7n9QHWkV5SLq6RLNjG4-rgMsK1YZbM3kIH32wZvtXMQYKagqGoYXuqFxQK4D57HDdZg70N0mBtRdRRW3d67mCnnpknT4N3MAEGhR950FK9gfPiSUXSDy8NFmXwdpPUlQSMTDrQkE09Lfcu3dLCV2SnLZzG7iGzyd0JqP-8ff_mzdPw5Bkpry0?></g></svg>