<svg xmlns="http://www.w3.org/2000/svg" xmlns:xlink="http://www.w3.org/1999/xlink" contentStyleType="text/css" data-diagram-type="CLASS" height="835px" preserveAspectRatio="none" style="width:348px;height:835px;background:#FFFFFF;" version="1.1" viewBox="0 0 348 835" width="348px" zoomAndPan="magnify"><?plantuml 1.2026.3?><defs/><g><g class="title" data-source-line="1"><text fill="#000000" font-family="sans-serif" font-size="14" font-weight="700" lengthAdjust="spacing" textLength="320.3594" x="10.4009" y="23.5352">Estructura l&#243;gica de datos del proyecto ATM</text></g><!--class CustomerEvent--><g class="entity" data-qualified-name="CustomerEvent" data-source-line="3" id="ent0002"><rect fill="#F1F1F1" height="262.3477" rx="2.5" ry="2.5" style="stroke:#181818;stroke-width:0.5;" width="155.8076" x="7" y="301.3983"/><ellipse cx="31.5862" cy="317.3983" fill="#ADD1B2" rx="11" ry="11" style="stroke:#181818;stroke-width:1;"/><path d="M34.0594,323.5413 Q33.4783,323.8402 32.8392,323.9896 Q32.2,324.139 31.4944,324.139 Q28.9876,324.139 27.6678,322.4871 Q26.3479,320.8353 26.3479,317.7142 Q26.3479,314.5848 27.6678,312.9329 Q28.9876,311.2811 31.4944,311.2811 Q32.2,311.2811 32.8475,311.4305 Q33.4949,311.5799 34.0594,311.8787 L34.0594,314.6014 Q33.4285,314.0204 32.835,313.7506 Q32.2415,313.4808 31.6106,313.4808 Q30.2659,313.4808 29.5811,314.5475 Q28.8963,315.6141 28.8963,317.7142 Q28.8963,319.806 29.5811,320.8726 Q30.2659,321.9393 31.6106,321.9393 Q32.2415,321.9393 32.835,321.6695 Q33.4285,321.3997 34.0594,320.8187 Z " fill="#000000"/><text fill="#000000" font-family="sans-serif" font-size="14" lengthAdjust="spacing" textLength="102.5049" x="47.7165" y="322.6893">CustomerEvent</text><line style="stroke:#181818;stroke-width:0.5;" x1="8" x2="161.8076" y1="333.3983" y2="333.3983"/><text fill="#000000" font-family="sans-serif" font-size="14" lengthAdjust="spacing" textLength="56.6289" x="13" y="350.9334">event_id</text><text fill="#000000" font-family="sans-serif" font-size="14" lengthAdjust="spacing" textLength="83.2891" x="13" y="367.4217">customer_id</text><text fill="#000000" font-family="sans-serif" font-size="14" lengthAdjust="spacing" textLength="66.6777" x="13" y="383.91">branch_id</text><text fill="#000000" font-family="sans-serif" font-size="14" lengthAdjust="spacing" textLength="61.6328" x="13" y="400.3983">arrival_ts</text><text fill="#000000" font-family="sans-serif" font-size="14" lengthAdjust="spacing" textLength="104.3711" x="13" y="416.8866">service_start_ts</text><text fill="#000000" font-family="sans-serif" font-size="14" lengthAdjust="spacing" textLength="98.6016" x="13" y="433.3748">service_end_ts</text><text fill="#000000" font-family="sans-serif" font-size="14" lengthAdjust="spacing" textLength="85.709" x="13" y="449.8631">departure_ts</text><text fill="#000000" font-family="sans-serif" font-size="14" lengthAdjust="spacing" textLength="92.4561" x="13" y="466.3514">observed_sex</text><text fill="#000000" font-family="sans-serif" font-size="14" lengthAdjust="spacing" textLength="143.8076" x="13" y="482.8397">estimated_age_range</text><text fill="#000000" font-family="sans-serif" font-size="14" lengthAdjust="spacing" textLength="112.1572" x="13" y="499.328">transaction_type</text><text fill="#000000" font-family="sans-serif" font-size="14" lengthAdjust="spacing" textLength="100.6523" x="13" y="515.8163">queue_entered</text><text fill="#000000" font-family="sans-serif" font-size="14" lengthAdjust="spacing" textLength="75.6738" x="13" y="532.3045">abandoned</text><text fill="#000000" font-family="sans-serif" font-size="14" lengthAdjust="spacing" textLength="77.1777" x="13" y="548.7928">served_flag</text><line style="stroke:#181818;stroke-width:0.5;" x1="8" x2="161.8076" y1="555.7459" y2="555.7459"/></g><!--class ATMState--><g class="entity" data-qualified-name="ATMState" data-source-line="19" id="ent0003"><rect fill="#F1F1F1" height="179.9063" rx="2.5" ry="2.5" style="stroke:#181818;stroke-width:0.5;" width="141.8076" x="88" y="640.7383"/><ellipse cx="123.562" cy="656.7383" fill="#ADD1B2" rx="11" ry="11" style="stroke:#181818;stroke-width:1;"/><path d="M126.0352,662.8813 Q125.4541,663.1802 124.8149,663.3296 Q124.1758,663.479 123.4702,663.479 Q120.9634,663.479 119.6436,661.8271 Q118.3237,660.1753 118.3237,657.0542 Q118.3237,653.9248 119.6436,652.2729 Q120.9634,650.6211 123.4702,650.6211 Q124.1758,650.6211 124.8232,650.7705 Q125.4707,650.9199 126.0352,651.2188 L126.0352,653.9414 Q125.4043,653.3604 124.8108,653.0906 Q124.2173,652.8208 123.5864,652.8208 Q122.2417,652.8208 121.5569,653.8875 Q120.8721,654.9541 120.8721,657.0542 Q120.8721,659.146 121.5569,660.2126 Q122.2417,661.2793 123.5864,661.2793 Q124.2173,661.2793 124.8108,661.0095 Q125.4043,660.7397 126.0352,660.1587 Z " fill="#000000"/><text fill="#000000" font-family="sans-serif" font-size="14" lengthAdjust="spacing" textLength="64.1143" x="142.1313" y="662.0293">ATMState</text><line style="stroke:#181818;stroke-width:0.5;" x1="89" x2="228.8076" y1="672.7383" y2="672.7383"/><text fill="#000000" font-family="sans-serif" font-size="14" lengthAdjust="spacing" textLength="129.8076" x="94" y="690.2734">atm_state_event_id</text><text fill="#000000" font-family="sans-serif" font-size="14" lengthAdjust="spacing" textLength="45.8965" x="94" y="706.7617">atm_id</text><text fill="#000000" font-family="sans-serif" font-size="14" lengthAdjust="spacing" textLength="90.583" x="94" y="723.25">state_start_ts</text><text fill="#000000" font-family="sans-serif" font-size="14" lengthAdjust="spacing" textLength="84.8135" x="94" y="739.7383">state_end_ts</text><text fill="#000000" font-family="sans-serif" font-size="14" lengthAdjust="spacing" textLength="66.1787" x="94" y="756.2266">atm_state</text><text fill="#000000" font-family="sans-serif" font-size="14" lengthAdjust="spacing" textLength="96.9199" x="94" y="772.7148">cash_available</text><text fill="#000000" font-family="sans-serif" font-size="14" lengthAdjust="spacing" textLength="75.8447" x="94" y="789.2031">failure_flag</text><text fill="#000000" font-family="sans-serif" font-size="14" lengthAdjust="spacing" textLength="119.3076" x="94" y="805.6914">maintenance_flag</text><line style="stroke:#181818;stroke-width:0.5;" x1="89" x2="228.8076" y1="812.6445" y2="812.6445"/></g><!--class SystemSnapshot--><g class="entity" data-qualified-name="SystemSnapshot" data-source-line="30" id="ent0004"><rect fill="#F1F1F1" height="179.9063" rx="2.5" ry="2.5" style="stroke:#181818;stroke-width:0.5;" width="142.5303" x="87.64" y="44.4883"/><ellipse cx="102.64" cy="60.4883" fill="#ADD1B2" rx="11" ry="11" style="stroke:#181818;stroke-width:1;"/><path d="M105.1131,66.6313 Q104.5321,66.9302 103.8929,67.0796 Q103.2538,67.229 102.5482,67.229 Q100.0414,67.229 98.7215,65.5771 Q97.4017,63.9253 97.4017,60.8042 Q97.4017,57.6748 98.7215,56.0229 Q100.0414,54.3711 102.5482,54.3711 Q103.2538,54.3711 103.9012,54.5205 Q104.5487,54.6699 105.1131,54.9688 L105.1131,57.6914 Q104.4823,57.1104 103.8888,56.8406 Q103.2953,56.5708 102.6644,56.5708 Q101.3197,56.5708 100.6349,57.6375 Q99.9501,58.7041 99.9501,60.8042 Q99.9501,62.896 100.6349,63.9626 Q101.3197,65.0293 102.6644,65.0293 Q103.2953,65.0293 103.8888,64.7595 Q104.4823,64.4897 105.1131,63.9087 Z " fill="#000000"/><text fill="#000000" font-family="sans-serif" font-size="14" lengthAdjust="spacing" textLength="110.5303" x="116.64" y="65.7793">SystemSnapshot</text><line style="stroke:#181818;stroke-width:0.5;" x1="88.64" x2="229.1703" y1="76.4883" y2="76.4883"/><text fill="#000000" font-family="sans-serif" font-size="14" lengthAdjust="spacing" textLength="81.8877" x="93.64" y="94.0234">snapshot_id</text><text fill="#000000" font-family="sans-serif" font-size="14" lengthAdjust="spacing" textLength="81.4023" x="93.64" y="110.5117">snapshot_ts</text><text fill="#000000" font-family="sans-serif" font-size="14" lengthAdjust="spacing" textLength="66.6777" x="93.64" y="127">branch_id</text><text fill="#000000" font-family="sans-serif" font-size="14" lengthAdjust="spacing" textLength="129.8281" x="93.64" y="143.4883">queue_length_total</text><text fill="#000000" font-family="sans-serif" font-size="14" lengthAdjust="spacing" textLength="117.6533" x="93.64" y="159.9766">active_atm_count</text><text fill="#000000" font-family="sans-serif" font-size="14" lengthAdjust="spacing" textLength="110.373" x="93.64" y="176.4648">busy_atm_count</text><text fill="#000000" font-family="sans-serif" font-size="14" lengthAdjust="spacing" textLength="103.127" x="93.64" y="192.9531">idle_atm_count</text><text fill="#000000" font-family="sans-serif" font-size="14" lengthAdjust="spacing" textLength="116.0059" x="93.64" y="209.4414">failed_atm_count</text><line style="stroke:#181818;stroke-width:0.5;" x1="88.64" x2="229.1703" y1="216.3945" y2="216.3945"/></g><!--link CustomerEvent to ATMState--><g class="link" data-entity-1="ent0002" data-entity-2="ent0003" data-link-type="dependency" data-source-line="41" id="lnk5"><path codeLine="41" d="M107.89,564.1583 C111.28,579.9283 114.96,595.7483 118.9,610.7383 C121.45,620.4383 122.5921,624.7577 125.6821,634.7177" fill="none" id="CustomerEvent-to-ATMState" style="stroke:#181818;stroke-width:1;"/><polygon fill="#181818" points="127.46,640.4483,128.6136,630.6672,125.9785,635.6728,120.9729,633.0377,127.46,640.4483" style="stroke:#181818;stroke-width:1;"/><text fill="#000000" font-family="sans-serif" font-size="13" lengthAdjust="spacing" textLength="86.874" x="119.9" y="607.3066">usa / impacta</text></g><!--link SystemSnapshot to CustomerEvent--><g class="link" data-entity-1="ent0004" data-entity-2="ent0002" data-link-type="dependency" data-source-line="42" id="lnk6"><path codeLine="42" d="M118.4,224.8383 C114.82,234.6883 111.56,244.6683 108.9,254.3983 C104.82,269.3683 102.4769,279.3421 99.6369,295.2121" fill="none" id="SystemSnapshot-to-CustomerEvent" style="stroke:#181818;stroke-width:1;stroke-dasharray:7,7;"/><polygon fill="#181818" points="98.58,301.1183,104.1028,292.9636,99.4608,296.1965,96.228,291.5544,98.58,301.1183" style="stroke:#181818;stroke-width:1;"/><text fill="#000000" font-family="sans-serif" font-size="13" lengthAdjust="spacing" textLength="96.002" x="109.9" y="267.9666">agrega eventos</text></g><!--link SystemSnapshot to ATMState--><g class="link" data-entity-1="ent0004" data-entity-2="ent0003" data-link-type="dependency" data-source-line="43" id="lnk7"><path codeLine="43" d="M202.53,224.7583 C205.94,234.5783 208.85,244.5783 210.9,254.3983 C243.31,409.4183 243.31,455.7183 210.9,610.7383 C208.85,620.5583 207.9082,624.8903 204.4982,634.7103" fill="none" id="SystemSnapshot-to-ATMState" style="stroke:#181818;stroke-width:1;stroke-dasharray:7,7;"/><polygon fill="#181818" points="202.53,640.3783,209.261,633.1884,204.1702,635.655,201.7037,630.5642,202.53,640.3783" style="stroke:#181818;stroke-width:1;"/><text fill="#000000" font-family="sans-serif" font-size="13" lengthAdjust="spacing" textLength="95.9512" x="236.21" y="437.6366">agrega estados</text></g><?plantuml-src RLAxRiCm3Dpz5Vg1fdk604MHiLEw2xJ4s09aoHKfeqRHh-edzCTAMSx3GRVZaIBl3cB77jMHE6N3EO7olp-TCw0iAWiSIO1NOuep6exgvVsjQOm78lMQYUE0wJXXOFNLA8K5QMS5chLPgpP1C7t5a9ARm6icAGZJv0ngOaYyfJ3OIbWSfPaJrZAsPGAj9lmiDudT02mrTAZbJeV2iW02mou6pVDOg8-CkMnbJBZeQ27O61QyRZnxw9hlYp-nUcBPl5W37ef8bWqtauLSGEtScwYZ5mlNroKPe5x31Cv3wmjn5bZSBTUL6i29nY21uOEWqqoCmod0I7siYTDQh38krNBqFlHgtcFekDSS6NnH9VbCg8iu4tFWyYRJl26SzTk9ehQ4VQL4tlOdF3qTRjdjLIPGpyeDevo3vi73RdTu-4Tx1Lt23kfdYlJVYxljbs59ryhm7m00?></g></svg>