<svg xmlns="http://www.w3.org/2000/svg" xmlns:xlink="http://www.w3.org/1999/xlink" contentStyleType="text/css" data-diagram-type="DESCRIPTION" height="651px" preserveAspectRatio="none" style="width:754px;height:651px;background:#FFFFFF;" version="1.1" viewBox="0 0 754 651" width="754px" zoomAndPan="magnify"><?plantuml 1.2026.3?><defs/><g><g class="title" data-source-line="2"><text fill="#000000" font-family="sans-serif" font-size="14" font-weight="700" lengthAdjust="spacing" textLength="374.582" x="186.519" y="23.5352">Casos de uso del sistema ATM observado/simulado</text></g><!--cluster SistemaATM--><g class="cluster" data-qualified-name="SistemaATM" data-source-line="9" id="ent0006"><rect fill="none" height="465" rx="2.5" ry="2.5" style="stroke:#181818;stroke-width:1;" width="583.43" x="157.19" y="170.5583"/><text fill="#000000" font-family="sans-serif" font-size="14" font-weight="700" lengthAdjust="spacing" textLength="88.8262" x="404.4919" y="186.0934">SistemaATM</text></g><!--entity UC1--><g class="entity" data-qualified-name="SistemaATM.UC1" data-source-line="10" id="ent0007"><ellipse cx="277.7814" cy="291.5566" fill="#F1F1F1" rx="78.3414" ry="18.0683" style="stroke:#181818;stroke-width:0.5;"/><text fill="#000000" font-family="sans-serif" font-size="14" lengthAdjust="spacing" textLength="126.1299" x="214.7165" y="296.3007">Llegar al &#225;rea ATM</text></g><!--entity UC2--><g class="entity" data-qualified-name="SistemaATM.UC2" data-source-line="11" id="ent0008"><ellipse cx="655.4895" cy="398.5542" fill="#F1F1F1" rx="69.1295" ry="16.2259" style="stroke:#181818;stroke-width:0.5;"/><text fill="#000000" font-family="sans-serif" font-size="14" lengthAdjust="spacing" textLength="103.4209" x="603.7791" y="403.2983">Esperar en cola</text></g><!--entity UC3--><g class="entity" data-qualified-name="SistemaATM.UC3" data-source-line="12" id="ent0009"><ellipse cx="655.4919" cy="258.5573" fill="#F1F1F1" rx="49.1719" ry="14.659" style="stroke:#181818;stroke-width:0.5;"/><text fill="#000000" font-family="sans-serif" font-size="14" lengthAdjust="spacing" textLength="65.2969" x="622.8434" y="263.3014">Usar ATM</text></g><!--entity UC4--><g class="entity" data-qualified-name="SistemaATM.UC4" data-source-line="13" id="ent0010"><ellipse cx="277.7821" cy="221.5607" fill="#F1F1F1" rx="70.3121" ry="16.4624" style="stroke:#181818;stroke-width:0.5;"/><text fill="#000000" font-family="sans-serif" font-size="14" lengthAdjust="spacing" textLength="106.4287" x="224.5677" y="226.3048">Abandonar cola</text></g><!--entity UC5--><g class="entity" data-qualified-name="SistemaATM.UC5" data-source-line="14" id="ent0011"><ellipse cx="277.7817" cy="367.5546" fill="#F1F1F1" rx="104.5817" ry="23.3163" style="stroke:#181818;stroke-width:0.5;"/><text fill="#000000" font-family="sans-serif" font-size="14" lengthAdjust="spacing" textLength="185.6846" x="184.9394" y="372.2988">Registrar evento observado</text></g><!--entity UC6--><g class="entity" data-qualified-name="SistemaATM.UC6" data-source-line="15" id="ent0012"><ellipse cx="277.7788" cy="445.562" fill="#F1F1F1" rx="86.7188" ry="19.7438" style="stroke:#181818;stroke-width:0.5;"/><text fill="#000000" font-family="sans-serif" font-size="14" lengthAdjust="spacing" textLength="145.7354" x="204.9112" y="450.3062">Registrar estado ATM</text></g><!--entity UC7--><g class="entity" data-qualified-name="SistemaATM.UC7" data-source-line="16" id="ent0013"><ellipse cx="277.7767" cy="522.5616" fill="#F1F1F1" rx="98.4667" ry="22.0933" style="stroke:#181818;stroke-width:0.5;"/><text fill="#000000" font-family="sans-serif" font-size="14" lengthAdjust="spacing" textLength="172.2178" x="191.6678" y="527.3058">Gestionar mantenimiento</text></g><!--entity UC8--><g class="entity" data-qualified-name="SistemaATM.UC8" data-source-line="17" id="ent0014"><ellipse cx="277.7836" cy="599.563" fill="#F1F1F1" rx="86.0236" ry="19.6047" style="stroke:#181818;stroke-width:0.5;"/><text fill="#000000" font-family="sans-serif" font-size="14" lengthAdjust="spacing" textLength="144.1357" x="205.7158" y="604.3071">Procesar cobro social</text></g><!--entity Cliente--><g class="entity" data-qualified-name="Cliente" data-source-line="4" id="ent0002"><ellipse cx="58.0923" cy="156.8183" fill="#F1F1F1" rx="8" ry="8" style="stroke:#181818;stroke-width:0.5;"/><path d="M58.0923,164.8183 L58.0923,191.8183 M45.0923,172.8183 L71.0923,172.8183 M58.0923,191.8183 L45.0923,206.8183 M58.0923,191.8183 L71.0923,206.8183" fill="none" style="stroke:#181818;stroke-width:0.5;"/><text fill="#000000" font-family="sans-serif" font-size="14" lengthAdjust="spacing" textLength="47.3047" x="34.44" y="221.8534">Cliente</text></g><!--entity Observador--><g class="entity" data-qualified-name="Observador" data-source-line="5" id="ent0003"><ellipse cx="58.0949" cy="343.8183" fill="#F1F1F1" rx="8" ry="8" style="stroke:#181818;stroke-width:0.5;"/><path d="M58.0949,351.8183 L58.0949,378.8183 M45.0949,359.8183 L71.0949,359.8183 M58.0949,378.8183 L45.0949,393.8183 M58.0949,378.8183 L71.0949,393.8183" fill="none" style="stroke:#181818;stroke-width:0.5;"/><text fill="#000000" font-family="sans-serif" font-size="14" lengthAdjust="spacing" textLength="78.4697" x="18.86" y="408.8534">Observador</text></g><!--entity OperadorATM--><g class="entity" data-qualified-name="OperadorATM" data-source-line="6" id="ent0004"><ellipse cx="58.0986" cy="456.8183" fill="#F1F1F1" rx="8" ry="8" style="stroke:#181818;stroke-width:0.5;"/><path d="M58.0986,464.8183 L58.0986,491.8183 M45.0986,472.8183 L71.0986,472.8183 M58.0986,491.8183 L45.0986,506.8183 M58.0986,491.8183 L71.0986,506.8183" fill="none" style="stroke:#181818;stroke-width:0.5;"/><text fill="#000000" font-family="sans-serif" font-size="14" lengthAdjust="spacing" textLength="94.6572" x="10.77" y="521.8534">OperadorATM</text></g><!--entity ProgramaSocial--><g class="entity" data-qualified-name="ProgramaSocial" data-source-line="7" id="ent0005"><ellipse cx="58.0967" cy="569.8183" fill="#F1F1F1" rx="8" ry="8" style="stroke:#181818;stroke-width:0.5;"/><path d="M58.0967,577.8183 L58.0967,604.8183 M45.0967,585.8183 L71.0967,585.8183 M58.0967,604.8183 L45.0967,619.8183 M58.0967,604.8183 L71.0967,619.8183" fill="none" style="stroke:#181818;stroke-width:0.5;"/><text fill="#000000" font-family="sans-serif" font-size="14" lengthAdjust="spacing" textLength="104.1934" x="6" y="634.8534">ProgramaSocial</text></g><!--link Cliente to UC1--><g class="link" data-entity-1="ent0002" data-entity-2="ent0007" data-link-type="dependency" data-source-line="20" id="lnk15"><path d="M81.9,207.9683 C99.19,223.1683 124.18,243.0283 149.19,255.5583 C170.39,266.1683 189.3674,272.5902 211.4374,278.2402" fill="none" id="Cliente-to-UC1" style="stroke:#181818;stroke-width:1;"/><polygon fill="#181818" points="217.25,279.7283,209.5232,273.6212,212.4062,278.4883,207.5392,281.3713,217.25,279.7283" style="stroke:#181818;stroke-width:1;"/></g><!--link Cliente to UC2--><g class="link" data-entity-1="ent0002" data-entity-2="ent0008" data-link-type="dependency" data-source-line="21" id="lnk16"><path d="M82.06,182.3483 C135.88,173.3783 273.85,155.6983 382.36,187.5583 C467.73,212.6183 487.41,230.3183 556.36,286.5583 C592.21,315.8083 622.3585,354.065 639.3885,377.355" fill="none" id="Cliente-to-UC2" style="stroke:#181818;stroke-width:1;"/><polygon fill="#181818" points="642.93,382.1983,640.8466,372.5723,639.9787,378.1622,634.3889,377.2943,642.93,382.1983" style="stroke:#181818;stroke-width:1;"/></g><!--link Cliente to UC3--><g class="link" data-entity-1="ent0002" data-entity-2="ent0009" data-link-type="dependency" data-source-line="22" id="lnk17"><path d="M81.95,163.3683 C97.05,149.7583 118.07,133.8483 140.19,126.5583 C315.85,68.6383 391.1,43.4883 556.36,126.5583 C606.11,151.5683 634.7114,209.5219 646.6114,238.3619" fill="none" id="Cliente-to-UC3" style="stroke:#181818;stroke-width:1;"/><polygon fill="#181818" points="648.9,243.9083,649.1648,234.063,646.9929,239.2863,641.7696,237.1144,648.9,243.9083" style="stroke:#181818;stroke-width:1;"/></g><!--link Cliente to UC4--><g class="link" data-entity-1="ent0002" data-entity-2="ent0010" data-link-type="dependency" data-source-line="23" id="lnk18"><path d="M81.98,190.2383 C114.18,195.4183 168.016,204.0766 212.896,211.2866" fill="none" id="Cliente-to-UC4" style="stroke:#181818;stroke-width:1;"/><polygon fill="#181818" points="218.82,212.2383,210.5684,206.8614,213.8833,211.4452,209.2995,214.7601,218.82,212.2383" style="stroke:#181818;stroke-width:1;"/></g><!--link Observador to UC5--><g class="link" data-entity-1="ent0003" data-entity-2="ent0011" data-link-type="dependency" data-source-line="24" id="lnk19"><path d="M97.76,372.4883 C119.02,371.9083 140.5022,371.3125 167.5322,370.5725" fill="none" id="Observador-to-UC5" style="stroke:#181818;stroke-width:1;"/><polygon fill="#181818" points="173.53,370.4083,164.4239,366.6561,168.5319,370.5451,164.6428,374.6531,173.53,370.4083" style="stroke:#181818;stroke-width:1;"/></g><!--link Observador to UC6--><g class="link" data-entity-1="ent0003" data-entity-2="ent0012" data-link-type="dependency" data-source-line="25" id="lnk20"><path d="M97.41,389.2983 C113.31,395.6083 132.03,402.7483 149.19,408.5583 C172.35,416.3983 192.4264,422.4557 214.7764,428.7757" fill="none" id="Observador-to-UC6" style="stroke:#181818;stroke-width:1;"/><polygon fill="#181818" points="220.55,430.4083,212.978,424.1103,215.7387,429.0478,210.8012,431.8084,220.55,430.4083" style="stroke:#181818;stroke-width:1;"/></g><!--link OperadorATM to UC6--><g class="link" data-entity-1="ent0004" data-entity-2="ent0012" data-link-type="dependency" data-source-line="26" id="lnk21"><path d="M105.79,477.7583 C136.15,472.0483 170.3137,465.609 204.0237,459.259" fill="none" id="OperadorATM-to-UC6" style="stroke:#181818;stroke-width:1;"/><polygon fill="#181818" points="209.92,458.1483,200.3351,455.8835,205.0064,459.0739,201.816,463.7452,209.92,458.1483" style="stroke:#181818;stroke-width:1;"/></g><!--link OperadorATM to UC7--><g class="link" data-entity-1="ent0004" data-entity-2="ent0013" data-link-type="dependency" data-source-line="27" id="lnk22"><path d="M105.79,494.2783 C132.53,498.6983 160.8605,503.3887 191.6805,508.4887" fill="none" id="OperadorATM-to-UC7" style="stroke:#181818;stroke-width:1;"/><polygon fill="#181818" points="197.6,509.4683,189.3738,504.0526,192.6671,508.652,188.0677,511.9453,197.6,509.4683" style="stroke:#181818;stroke-width:1;"/></g><!--link ProgramaSocial to UC8--><g class="link" data-entity-1="ent0005" data-entity-2="ent0014" data-link-type="dependency" data-source-line="28" id="lnk23"><path d="M110.68,599.5583 C134.82,599.5583 158.21,599.5583 185.52,599.5583" fill="none" id="ProgramaSocial-to-UC8" style="stroke:#181818;stroke-width:1;"/><polygon fill="#181818" points="191.52,599.5583,182.52,595.5583,186.52,599.5583,182.52,603.5583,191.52,599.5583" style="stroke:#181818;stroke-width:1;"/></g><!--link UC8 to UC3--><g class="link" data-entity-1="ent0014" data-entity-2="ent0009" data-link-type="dependency" data-source-line="30" id="lnk24"><path d="M344.62,586.9083 C358.69,581.4683 372.31,573.6883 382.36,562.5583 C419.78,521.1183 381.58,487.1483 412.36,440.5583 C468.14,356.0883 571.551,298.3863 622.091,273.6463" fill="none" id="UC8-to-UC3" style="stroke:#181818;stroke-width:1;stroke-dasharray:7,7;"/><polygon fill="#181818" points="627.48,271.0083,617.6379,271.3726,622.9892,273.2066,621.1552,278.5579,627.48,271.0083" style="stroke:#181818;stroke-width:1;"/><text fill="#000000" font-family="sans-serif" font-size="13" lengthAdjust="spacing" textLength="70.2241" x="449.36" y="307.8466">puede usar</text></g><!--link UC8 to UC2--><g class="link" data-entity-1="ent0014" data-entity-2="ent0008" data-link-type="dependency" data-source-line="31" id="lnk25"><path d="M329.91,583.5583 C346.89,577.6483 365.71,570.4483 382.36,562.5583 C479.55,516.4783 581.6238,448.8347 627.1038,417.6047" fill="none" id="UC8-to-UC2" style="stroke:#181818;stroke-width:1;stroke-dasharray:7,7;"/><polygon fill="#181818" points="632.05,414.2083,622.3665,416.0054,627.9282,417.0386,626.895,422.6003,632.05,414.2083" style="stroke:#181818;stroke-width:1;"/><text fill="#000000" font-family="sans-serif" font-size="13" lengthAdjust="spacing" textLength="142.8032" x="413.36" y="462.6066">puede generar presi&#243;n</text></g><?plantuml-src VP9DJiD038NtFeNLVOlelrWWLHLY0m9HUW0tDM6aoKnbJxj178OpS8HUZCamfTCYs2JnypVnotCilmGC7iNKhm7NHhWAnZi89bZ6EQbNN3DkrSURHJKQk26SFT-ZNodBZjR-GaspjV41WAhW1UVMi0kSguS39mTXmzAMyILPUHHV2pMqy9KX2z2w85T71ullWUsyDy3eWojIniwTvPe4oUB-GpWPwY0fBkUN9NQZxIn1TbXvIndfbyXIO_zuV53sPYjoQ-yYK9mUbiGJrz5X6h6Bt-oFgMHwz0Uj8JB5t779tSQsINCRYa4wqxI17buvAT4ONSMQ7Ax4ewO4CpY5Tu2y3EnshrCwftN_h1wSrKCuhYzBez_I68gT_gDDu7JJMPu2n0lsUia1Nk5co-cd8oaQ_Pz6pIvjTIEiPl_fu0i0?></g></svg>