<svg xmlns="http://www.w3.org/2000/svg" xmlns:xlink="http://www.w3.org/1999/xlink" contentStyleType="text/css" data-diagram-type="DESCRIPTION" height="400px" preserveAspectRatio="none" style="width:996px;height:400px;background:#FFFFFF;" version="1.1" viewBox="0 0 996 400" width="996px" zoomAndPan="magnify"><?plantuml 1.2026.3?><defs/><g><g class="title" data-source-line="1"><text fill="#000000" font-family="sans-serif" font-size="14" font-weight="700" lengthAdjust="spacing" textLength="325.2334" x="331.9506" y="23.5352">Mapa causal simplificado de congesti&#243;n ATM</text></g><!--entity Payroll--><g class="entity" data-qualified-name="Payroll" data-source-line="3" id="ent0002"><rect fill="#F1F1F1" height="52.9766" rx="2.5" ry="2.5" style="stroke:#181818;stroke-width:0.5;" width="213.375" x="7" y="44.4883"/><text fill="#000000" font-family="sans-serif" font-size="14" lengthAdjust="spacing" textLength="123.9971" x="17" y="68.0234">Calendario laboral</text><text fill="#000000" font-family="sans-serif" font-size="14" lengthAdjust="spacing" textLength="193.375" x="17" y="84.5117">(inicio/quincena/fin de mes)</text></g><!--entity Social--><g class="entity" data-qualified-name="Social" data-source-line="4" id="ent0003"><rect fill="#F1F1F1" height="52.9766" rx="2.5" ry="2.5" style="stroke:#181818;stroke-width:0.5;" width="177.4863" x="254.94" y="44.4883"/><text fill="#000000" font-family="sans-serif" font-size="14" lengthAdjust="spacing" textLength="157.4863" x="264.94" y="68.0234">Transferencias sociales</text><text fill="#000000" font-family="sans-serif" font-size="14" lengthAdjust="spacing" textLength="136.7871" x="264.94" y="84.5117">(Pensi&#243;n 65 u otros)</text></g><!--entity Time--><g class="entity" data-qualified-name="Time" data-source-line="5" id="ent0004"><rect fill="#F1F1F1" height="36.4883" rx="2.5" ry="2.5" style="stroke:#181818;stroke-width:0.5;" width="102.4551" x="467.46" y="52.7283"/><text fill="#000000" font-family="sans-serif" font-size="14" lengthAdjust="spacing" textLength="82.4551" x="477.46" y="76.2634">Hora del d&#237;a</text></g><!--entity Capacity--><g class="entity" data-qualified-name="Capacity" data-source-line="6" id="ent0005"><rect fill="#F1F1F1" height="36.4883" rx="2.5" ry="2.5" style="stroke:#181818;stroke-width:0.5;" width="192.8945" x="789.24" y="157.4683"/><text fill="#000000" font-family="sans-serif" font-size="14" lengthAdjust="spacing" textLength="172.8945" x="799.24" y="181.0034">Capacidad operativa ATM</text></g><!--entity Profile--><g class="entity" data-qualified-name="Profile" data-source-line="7" id="ent0006"><rect fill="#F1F1F1" height="52.9766" rx="2.5" ry="2.5" style="stroke:#181818;stroke-width:0.5;" width="149.3291" x="605.02" y="44.4883"/><text fill="#000000" font-family="sans-serif" font-size="14" lengthAdjust="spacing" textLength="114.6455" x="615.02" y="68.0234">Perfil del usuario</text><text fill="#000000" font-family="sans-serif" font-size="14" lengthAdjust="spacing" textLength="129.3291" x="615.02" y="84.5117">(edad, experiencia)</text></g><!--entity TxType--><g class="entity" data-qualified-name="TxType" data-source-line="8" id="ent0007"><rect fill="#F1F1F1" height="36.4883" rx="2.5" ry="2.5" style="stroke:#181818;stroke-width:0.5;" width="142.958" x="789.21" y="52.7283"/><text fill="#000000" font-family="sans-serif" font-size="14" lengthAdjust="spacing" textLength="122.958" x="799.21" y="76.2634">Tipo de operaci&#243;n</text></g><!--entity Arrivals--><g class="entity" data-qualified-name="Arrivals" data-source-line="9" id="ent0008"><rect fill="#F1F1F1" height="36.4883" rx="2.5" ry="2.5" style="stroke:#181818;stroke-width:0.5;" width="79.4521" x="391.96" y="157.4683"/><text fill="#000000" font-family="sans-serif" font-size="14" lengthAdjust="spacing" textLength="59.4521" x="401.96" y="181.0034">Llegadas</text></g><!--entity Service--><g class="entity" data-qualified-name="Service" data-source-line="10" id="ent0009"><rect fill="#F1F1F1" height="36.4883" rx="2.5" ry="2.5" style="stroke:#181818;stroke-width:0.5;" width="148.4268" x="605.47" y="157.4683"/><text fill="#000000" font-family="sans-serif" font-size="14" lengthAdjust="spacing" textLength="128.4268" x="615.47" y="181.0034">Tiempo de servicio</text></g><!--entity Queue--><g class="entity" data-qualified-name="Queue" data-source-line="11" id="ent0010"><rect fill="#F1F1F1" height="36.4883" rx="2.5" ry="2.5" style="stroke:#181818;stroke-width:0.5;" width="133.2852" x="656.04" y="253.9483"/><text fill="#000000" font-family="sans-serif" font-size="14" lengthAdjust="spacing" textLength="113.2852" x="666.04" y="277.4834">Longitud de cola</text></g><!--entity Abandon--><g class="entity" data-qualified-name="Abandon" data-source-line="12" id="ent0011"><rect fill="#F1F1F1" height="36.4883" rx="2.5" ry="2.5" style="stroke:#181818;stroke-width:0.5;" width="89.5898" x="737.89" y="350.4383"/><text fill="#000000" font-family="sans-serif" font-size="14" lengthAdjust="spacing" textLength="69.5898" x="747.89" y="373.9734">Abandono</text></g><!--link Payroll to Arrivals--><g class="link" data-entity-1="ent0002" data-entity-2="ent0008" data-link-type="dependency" data-source-line="14" id="lnk12"><path d="M193.93,97.8983 C257.04,118.2883 336.5906,143.9837 385.9906,159.9437" fill="none" id="Payroll-to-Arrivals" style="stroke:#181818;stroke-width:1;"/><polygon fill="#181818" points="391.7,161.7883,384.3656,155.2151,386.9421,160.2511,381.9061,162.8277,391.7,161.7883" style="stroke:#181818;stroke-width:1;"/></g><!--link Social to Arrivals--><g class="link" data-entity-1="ent0003" data-entity-2="ent0008" data-link-type="dependency" data-source-line="15" id="lnk13"><path d="M365.89,97.8983 C381.78,116.4483 398.8376,136.3508 412.7776,152.6308" fill="none" id="Social-to-Arrivals" style="stroke:#181818;stroke-width:1;"/><polygon fill="#181818" points="416.68,157.1883,413.8647,147.7504,413.428,153.3904,407.788,152.9536,416.68,157.1883" style="stroke:#181818;stroke-width:1;"/></g><!--link Time to Arrivals--><g class="link" data-entity-1="ent0004" data-entity-2="ent0008" data-link-type="dependency" data-source-line="16" id="lnk14"><path d="M503.93,89.3983 C487.93,108.2983 466.416,133.6882 450.396,152.6182" fill="none" id="Time-to-Arrivals" style="stroke:#181818;stroke-width:1;"/><polygon fill="#181818" points="446.52,157.1983,455.3873,152.9122,449.75,153.3816,449.2806,147.7442,446.52,157.1983" style="stroke:#181818;stroke-width:1;"/></g><!--link Capacity to Queue--><g class="link" data-entity-1="ent0005" data-entity-2="ent0010" data-link-type="dependency" data-source-line="17" id="lnk15"><path d="M855.41,194.2583 C826.23,211.1783 787.4908,233.629 758.2708,250.569" fill="none" id="Capacity-to-Queue" style="stroke:#181818;stroke-width:1;"/><polygon fill="#181818" points="753.08,253.5783,762.8724,252.5248,757.4056,251.0705,758.86,245.6038,753.08,253.5783" style="stroke:#181818;stroke-width:1;"/></g><!--link Profile to Service--><g class="link" data-entity-1="ent0006" data-entity-2="ent0009" data-link-type="dependency" data-source-line="18" id="lnk16"><path d="M679.69,97.8983 C679.69,116.4483 679.69,134.9083 679.69,151.1883" fill="none" id="Profile-to-Service" style="stroke:#181818;stroke-width:1;"/><polygon fill="#181818" points="679.69,157.1883,683.69,148.1883,679.69,152.1883,675.69,148.1883,679.69,157.1883" style="stroke:#181818;stroke-width:1;"/></g><!--link TxType to Service--><g class="link" data-entity-1="ent0007" data-entity-2="ent0009" data-link-type="dependency" data-source-line="19" id="lnk17"><path d="M829.57,89.6383 C796.32,108.5083 749.128,135.2965 715.918,154.1465" fill="none" id="TxType-to-Service" style="stroke:#181818;stroke-width:1;"/><polygon fill="#181818" points="710.7,157.1083,720.5016,156.1443,715.0484,154.6401,716.5526,149.1869,710.7,157.1083" style="stroke:#181818;stroke-width:1;"/></g><!--link Arrivals to Queue--><g class="link" data-entity-1="ent0008" data-entity-2="ent0010" data-link-type="dependency" data-source-line="20" id="lnk18"><path d="M471.84,189.7483 C522.83,206.2983 605.3034,233.0751 662.3634,251.6051" fill="none" id="Arrivals-to-Queue" style="stroke:#181818;stroke-width:1;"/><polygon fill="#181818" points="668.07,253.4583,660.7455,246.8741,663.3145,251.9139,658.2746,254.4829,668.07,253.4583" style="stroke:#181818;stroke-width:1;"/></g><!--link Service to Queue--><g class="link" data-entity-1="ent0009" data-entity-2="ent0010" data-link-type="dependency" data-source-line="21" id="lnk19"><path d="M687.57,194.0383 C695.28,210.9783 704.4736,231.1777 712.2236,248.1977" fill="none" id="Service-to-Queue" style="stroke:#181818;stroke-width:1;"/><polygon fill="#181818" points="714.71,253.6583,714.6207,243.8098,712.638,249.1078,707.34,247.1251,714.71,253.6583" style="stroke:#181818;stroke-width:1;"/></g><!--link Queue to Abandon--><g class="link" data-entity-1="ent0010" data-entity-2="ent0011" data-link-type="dependency" data-source-line="22" id="lnk20"><path d="M733.69,290.5283 C744.45,307.4683 757.5353,328.0621 768.3353,345.0821" fill="none" id="Queue-to-Abandon" style="stroke:#181818;stroke-width:1;"/><polygon fill="#181818" points="771.55,350.1483,770.1054,340.4059,768.8711,345.9265,763.3505,344.6922,771.55,350.1483" style="stroke:#181818;stroke-width:1;"/></g><!--link Capacity to Abandon--><g class="link" data-entity-1="ent0005" data-entity-2="ent0011" data-link-type="dependency" data-source-line="23" id="lnk21"><path d="M876.18,194.3283 C856.56,230.7183 814.6182,308.4774 795.0182,344.8174" fill="none" id="Capacity-to-Abandon" style="stroke:#181818;stroke-width:1;"/><polygon fill="#181818" points="792.17,350.0983,799.9629,344.0758,794.5435,345.6976,792.9218,340.2782,792.17,350.0983" style="stroke:#181818;stroke-width:1;"/></g><?plantuml-src LL6xJWCn4EplArQfG0AbWX8feg4WKX1NqcpilMWbt_hm8qe-YefFo8_XittYtDp9i-EPsN7WO0ZsE24eZ1uDU1udmmChr1OqWR9o8X_uzYkmw_TTvqW5b5Ewjdb5GwBHiGM3H-lGVCaT2okss-_8eaXmEx3CEYFv-msWXmDUdJLchTCx53-G8r6S6Dwcdo6Vn0uaFbi_Fq446vojAf-PinPvI_x9o82-_M3cz3nI6tT2nHers8aS1ZxZl5Bcbbcuhla7SWERh1bzdDTCYIZTVm2w90NEUUjMpYPkOzVpb1lCPchUegIwzDUf8RuREg56dySxvr8kurib6ekM9tUUwoqTv4ChbLwBGzJbvKpfuIDIR5Yx8ugsKbJgeUlgmy3Zuyj_Yj9pYyszjiZINaQBNIqa8qlGide3BHAhctMqGlAtEDQmZU42_W40?></g></svg>