<svg xmlns="http://www.w3.org/2000/svg" xmlns:xlink="http://www.w3.org/1999/xlink" contentStyleType="text/css" data-diagram-type="STATE" height="442px" preserveAspectRatio="none" style="width:1400px;height:442px;background:#FFFFFF;" version="1.1" viewBox="0 0 1400 442" width="1400px" zoomAndPan="magnify"><?plantuml 1.2026.3?><defs/><g><g class="title" data-source-line="1"><text fill="#000000" font-family="sans-serif" font-size="14" font-weight="700" lengthAdjust="spacing" textLength="201.3184" x="595.9529" y="23.5352">Estados operativos del ATM</text></g><g class="start_entity" data-qualified-name=".start." data-source-line="3" id="ent0002"><ellipse cx="618.04" cy="53.4883" fill="#222222" rx="10" ry="10" style="stroke:#222222;stroke-width:1;"/></g><g class="entity" data-qualified-name="idle" id="ent0003"><rect fill="#F1F1F1" height="50" rx="12.5" ry="12.5" style="stroke:#181818;stroke-width:0.5;" width="50" x="593.04" y="124.4883"/><line style="stroke:#181818;stroke-width:0.5;" x1="593.04" x2="643.04" y1="150.9766" y2="150.9766"/><text fill="#000000" font-family="sans-serif" font-size="14" lengthAdjust="spacing" textLength="24.7051" x="605.6875" y="143.0234">idle</text></g><g class="entity" data-qualified-name="busy" id="ent0005"><rect fill="#F1F1F1" height="50" rx="12.5" ry="12.5" style="stroke:#181818;stroke-width:0.5;" width="51.9512" x="458.06" y="251.4883"/><line style="stroke:#181818;stroke-width:0.5;" x1="458.06" x2="510.0112" y1="277.9766" y2="277.9766"/><text fill="#000000" font-family="sans-serif" font-size="14" lengthAdjust="spacing" textLength="31.9512" x="468.06" y="270.0234">busy</text></g><g class="entity" data-qualified-name="down_failure" id="ent0008"><rect fill="#F1F1F1" height="50" rx="12.5" ry="12.5" style="stroke:#181818;stroke-width:0.5;" width="107.0762" x="42.5" y="378.4883"/><line style="stroke:#181818;stroke-width:0.5;" x1="42.5" x2="149.5762" y1="404.9766" y2="404.9766"/><text fill="#000000" font-family="sans-serif" font-size="14" lengthAdjust="spacing" textLength="87.0762" x="52.5" y="397.0234">down_failure</text></g><g class="entity" data-qualified-name="down_maintenance" id="ent0011"><rect fill="#F1F1F1" height="50" rx="12.5" ry="12.5" style="stroke:#181818;stroke-width:0.5;" width="150.5391" x="408.77" y="378.4883"/><line style="stroke:#181818;stroke-width:0.5;" x1="408.77" x2="559.3091" y1="404.9766" y2="404.9766"/><text fill="#000000" font-family="sans-serif" font-size="14" lengthAdjust="spacing" textLength="130.5391" x="418.77" y="397.0234">down_maintenance</text></g><g class="entity" data-qualified-name="cashout" id="ent0014"><rect fill="#F1F1F1" height="50" rx="12.5" ry="12.5" style="stroke:#181818;stroke-width:0.5;" width="73.252" x="906.41" y="378.4883"/><line style="stroke:#181818;stroke-width:0.5;" x1="906.41" x2="979.662" y1="404.9766" y2="404.9766"/><text fill="#000000" font-family="sans-serif" font-size="14" lengthAdjust="spacing" textLength="53.252" x="916.41" y="397.0234">cashout</text></g><g class="entity" data-qualified-name="offline" id="ent0020"><rect fill="#F1F1F1" height="50" rx="12.5" ry="12.5" style="stroke:#181818;stroke-width:0.5;" width="63.4766" x="1268.3" y="251.4883"/><line style="stroke:#181818;stroke-width:0.5;" x1="1268.3" x2="1331.7766" y1="277.9766" y2="277.9766"/><text fill="#000000" font-family="sans-serif" font-size="14" lengthAdjust="spacing" textLength="43.4766" x="1278.3" y="270.0234">offline</text></g><!--link *start* to idle--><g class="link" data-entity-1="ent0002" data-entity-2="ent0003" data-link-type="dependency" data-source-line="3" id="lnk4"><path d="M618.04,63.8483 C618.04,77.7783 618.04,98.4383 618.04,118.1383" fill="none" id="*start*-to-idle" style="stroke:#181818;stroke-width:1;"/><polygon fill="#181818" points="618.04,124.1383,622.04,115.1383,618.04,119.1383,614.04,115.1383,618.04,124.1383" style="stroke:#181818;stroke-width:1;"/></g><!--link idle to busy--><g class="link" data-entity-1="ent0003" data-entity-2="ent0005" data-link-type="dependency" data-source-line="5" id="lnk6"><path d="M592.64,152.7783 C539.49,158.1383 419.42,173.4983 395.04,204.4883 C390.37,210.4283 391.33,214.9083 395.04,221.4883 C402.04,233.9283 428.9199,248.9323 452.5999,260.6223" fill="none" id="idle-to-busy" style="stroke:#181818;stroke-width:1;"/><polygon fill="#181818" points="457.98,263.2783,451.6805,255.7076,453.4966,261.065,448.1392,262.8811,457.98,263.2783" style="stroke:#181818;stroke-width:1;"/><text fill="#000000" font-family="sans-serif" font-size="13" lengthAdjust="spacing" textLength="102.7876" x="396.04" y="218.0566">cliente asignado</text></g><!--link busy to idle--><g class="link" data-entity-1="ent0005" data-entity-2="ent0003" data-link-type="dependency" data-source-line="6" id="lnk7"><path d="M499.94,251.2583 C510.12,236.7583 524.17,218.4983 539.04,204.4883 C555.36,189.1083 571.3219,178.0595 587.6019,168.0995" fill="none" id="busy-to-idle" style="stroke:#181818;stroke-width:1;"/><polygon fill="#181818" points="592.72,164.9683,582.9553,166.2531,588.4549,167.5777,587.1303,173.0772,592.72,164.9683" style="stroke:#181818;stroke-width:1;"/><text fill="#000000" font-family="sans-serif" font-size="13" lengthAdjust="spacing" textLength="127.7847" x="540.04" y="218.0566">operaci&#243;n finalizada</text></g><!--link idle to down_failure--><g class="link" data-entity-1="ent0003" data-entity-2="ent0008" data-link-type="dependency" data-source-line="8" id="lnk9"><path d="M592.54,152.7983 C506.17,161.1383 226.43,192.2783 162.04,251.4883 C124.76,285.7683 108.7385,338.9618 101.6185,372.1518" fill="none" id="idle-to-down_failure" style="stroke:#181818;stroke-width:1;"/><polygon fill="#181818" points="100.36,378.0183,106.1588,370.0575,101.4088,373.1295,98.3367,368.3795,100.36,378.0183" style="stroke:#181818;stroke-width:1;"/><text fill="#000000" font-family="sans-serif" font-size="13" lengthAdjust="spacing" textLength="75.1943" x="163.04" y="281.5566">falla t&#233;cnica</text></g><!--link down_failure to idle--><g class="link" data-entity-1="ent0008" data-entity-2="ent0003" data-link-type="dependency" data-source-line="17" id="lnk17"><path d="M72.53,378.1783 C44.79,346.4783 6,290.4883 36.04,251.4883 C105.26,161.6083 483.5503,151.7094 586.6003,150.6594" fill="none" id="down_failure-to-idle" style="stroke:#181818;stroke-width:1;"/><polygon fill="#181818" points="592.6,150.5983,583.5597,146.6902,587.6003,150.6492,583.6412,154.6898,592.6,150.5983" style="stroke:#181818;stroke-width:1;"/><text fill="#000000" font-family="sans-serif" font-size="13" lengthAdjust="spacing" textLength="81.6816" x="37.04" y="281.5566">recuperaci&#243;n</text></g><!--link busy to down_failure--><g class="link" data-entity-1="ent0005" data-entity-2="ent0008" data-link-type="dependency" data-source-line="9" id="lnk10"><path d="M457.7,289.0683 C447.85,293.2083 436.51,297.7783 426.04,301.4883 C381.9,317.1283 369.85,317.8883 325.04,331.4883 C264.9,349.7383 201.7566,369.3776 155.3866,383.8776" fill="none" id="busy-to-down_failure" style="stroke:#181818;stroke-width:1;"/><polygon fill="#181818" points="149.66,385.6683,159.4436,386.7999,154.4321,384.176,157.056,379.1645,149.66,385.6683" style="stroke:#181818;stroke-width:1;"/><text fill="#000000" font-family="sans-serif" font-size="13" lengthAdjust="spacing" textLength="146.1802" x="326.04" y="345.0566">falla durante operaci&#243;n</text></g><!--link idle to down_maintenance--><g class="link" data-entity-1="ent0003" data-entity-2="ent0011" data-link-type="dependency" data-source-line="11" id="lnk12"><path d="M643.36,172.2583 C653.14,181.5183 663.91,192.8583 672.04,204.4883 C680.95,217.2383 727.68,316.2983 731.04,331.4883 C732.67,338.8683 735.78,342.5983 731.04,348.4883 C709.77,374.8983 630.1739,388.4409 565.6739,395.5509" fill="none" id="idle-to-down_maintenance" style="stroke:#181818;stroke-width:1;"/><polygon fill="#181818" points="559.71,396.2083,569.0941,399.1981,564.6799,395.6604,568.2175,391.2462,559.71,396.2083" style="stroke:#181818;stroke-width:1;"/><text fill="#000000" font-family="sans-serif" font-size="13" lengthAdjust="spacing" textLength="177.0552" x="720.23" y="281.5566">mantenimiento programado</text></g><!--link down_maintenance to idle--><g class="link" data-entity-1="ent0011" data-entity-2="ent0003" data-link-type="dependency" data-source-line="18" id="lnk18"><path d="M408.36,393.4483 C353.05,385.1283 284.76,370.6683 267.04,348.4883 C240.13,314.8083 241.84,287.1683 266.04,251.4883 C303.68,195.9783 512.451,164.1387 586.771,154.3887" fill="none" id="down_maintenance-to-idle" style="stroke:#181818;stroke-width:1;"/><polygon fill="#181818" points="592.72,153.6083,583.2762,150.8129,587.7625,154.2587,584.3168,158.745,592.72,153.6083" style="stroke:#181818;stroke-width:1;"/><text fill="#000000" font-family="sans-serif" font-size="13" lengthAdjust="spacing" textLength="173.6528" x="267.04" y="281.5566">mantenimiento completado</text></g><!--link busy to down_maintenance--><g class="link" data-entity-1="ent0005" data-entity-2="ent0011" data-link-type="dependency" data-source-line="12" id="lnk13"><path d="M482.39,301.9383 C481.84,311.1883 481.31,321.8183 481.04,331.4883 C480.61,347.0283 480.9631,358.4795 481.8031,372.1895" fill="none" id="busy-to-down_maintenance" style="stroke:#181818;stroke-width:1;"/><polygon fill="#181818" points="482.17,378.1783,485.6121,368.9505,481.8642,373.1876,477.6271,369.4397,482.17,378.1783" style="stroke:#181818;stroke-width:1;"/><text fill="#000000" font-family="sans-serif" font-size="13" lengthAdjust="spacing" textLength="98.8965" x="482.04" y="345.0566">cierre operativo</text></g><!--link idle to cashout--><g class="link" data-entity-1="ent0003" data-entity-2="ent0014" data-link-type="dependency" data-source-line="14" id="lnk15"><path d="M643.31,151.7583 C699.01,155.9683 833.04,174.0583 904.04,251.4883 C936.33,286.7083 942.4841,339.1401 943.2841,372.0401" fill="none" id="idle-to-cashout" style="stroke:#181818;stroke-width:1;"/><polygon fill="#181818" points="943.43,378.0383,947.21,368.9437,943.3085,373.0398,939.2124,369.1382,943.43,378.0383" style="stroke:#181818;stroke-width:1;"/><text fill="#000000" font-family="sans-serif" font-size="13" lengthAdjust="spacing" textLength="71.8237" x="932.03" y="281.5566">sin efectivo</text></g><!--link cashout to idle--><g class="link" data-entity-1="ent0014" data-entity-2="ent0003" data-link-type="dependency" data-source-line="19" id="lnk19"><path d="M969.14,378.0183 C999.13,346.8883 1040.73,292.2683 1012.04,251.4883 C968.66,189.8383 729.5707,161.3603 649.3907,153.4103" fill="none" id="cashout-to-idle" style="stroke:#181818;stroke-width:1;"/><polygon fill="#181818" points="643.42,152.8183,651.9814,157.6868,648.3956,153.3116,652.7708,149.7258,643.42,152.8183" style="stroke:#181818;stroke-width:1;"/><text fill="#000000" font-family="sans-serif" font-size="13" lengthAdjust="spacing" textLength="96.7446" x="1022.68" y="281.5566">recarga exitosa</text></g><!--link busy to cashout--><g class="link" data-entity-1="ent0005" data-entity-2="ent0014" data-link-type="dependency" data-source-line="15" id="lnk16"><path d="M510.36,284.6583 C587.99,305.7983 810.3408,366.3517 900.2308,390.8317" fill="none" id="busy-to-cashout" style="stroke:#181818;stroke-width:1;"/><polygon fill="#181818" points="906.02,392.4083,898.3873,386.184,901.1957,391.0945,896.2852,393.9029,906.02,392.4083" style="stroke:#181818;stroke-width:1;"/><text fill="#000000" font-family="sans-serif" font-size="13" lengthAdjust="spacing" textLength="104.8506" x="742.02" y="345.0566">efectivo agotado</text></g><!--link idle to offline--><g class="link" data-entity-1="ent0003" data-entity-2="ent0020" data-link-type="dependency" data-source-line="21" id="lnk21"><path d="M643.43,150.3783 C716.59,150.6883 933.56,155.9583 1105.04,204.4883 C1122.06,209.3083 1124.63,214.8583 1141.04,221.4883 C1184.28,238.9783 1229.851,253.9154 1262.241,263.9954" fill="none" id="idle-to-offline" style="stroke:#181818;stroke-width:1;"/><polygon fill="#181818" points="1267.97,265.7783,1260.5651,259.2846,1263.1958,264.2925,1258.1879,266.9233,1267.97,265.7783" style="stroke:#181818;stroke-width:1;"/><text fill="#000000" font-family="sans-serif" font-size="13" lengthAdjust="spacing" textLength="163.1348" x="1142.04" y="218.0566">cierre total / desconexi&#243;n</text></g><!--link offline to idle--><g class="link" data-entity-1="ent0020" data-entity-2="ent0003" data-link-type="dependency" data-source-line="22" id="lnk22"><path d="M1312.28,251.1683 C1318.04,235.8983 1321.45,216.8283 1310.04,204.4883 C1263.91,154.6183 768.11,150.7199 649.2,150.4899" fill="none" id="offline-to-idle" style="stroke:#181818;stroke-width:1;"/><polygon fill="#181818" points="643.2,150.4783,652.1922,154.4957,648.2,150.488,652.2077,146.4957,643.2,150.4783" style="stroke:#181818;stroke-width:1;"/><text fill="#000000" font-family="sans-serif" font-size="13" lengthAdjust="spacing" textLength="65.9141" x="1318.31" y="218.0566">reapertura</text></g><?plantuml-src RPAnJiGm38RtF8Ldf1Cx0z8DZ6ni226JECMIQrT92XnlnCmZt8kHL2fDuPQgRJv__kssS162krmmM0QRA67XjteRIE3uSE_SuzKJ70wtm478kNPT7b_cV88RyCAaXG0p3reTRdc_yXLOb9xFtmgH5OK_CM3d2VQkpn5PvjJmY288vVpbbJrkjejOc1EsvbkFl-8HkGAAwblLs6ZbiKKsc98D2STTw0j5dYabsbRJjV2ONsqk5SgiG97y0lpQjlFr372mjchdTWDr-qhavssSVtawSZ-Djt4IMjnhsxqLqu107rmiz_kt68Mr6xJKW0BNzGV8thGMj1mhjLDYpLdg9t0_?></g></svg>